<?xml version="1.0" encoding="UTF-8"?>
<svg id="Layer_2" xmlns="http://www.w3.org/2000/svg" viewBox="0 0 858.05 194.56">
  <defs>
    <style>
      .cls-1 {
        fill: #fff;
      }
    </style>
  </defs>
  <g id="Layer_1-2" data-name="Layer_1">
    <g>
      <g>
        <polygon class="cls-1" points="158.57 53.85 138.87 110.96 122.13 157.67 85.12 136.09 85.12 124.6 109.17 104.54 109.17 94.83 79.29 101.27 49.39 94.83 49.39 104.54 73.46 124.6 73.46 136.09 36.44 157.67 19.7 110.96 0 53.85 10.6 37.24 61.06 65.52 53.87 27.41 22.11 19.2 34.36 0 124.21 0 136.46 19.2 104.69 27.41 97.51 65.52 147.97 37.24 158.57 53.85"/>
        <polygon class="cls-1" points="117.88 169.06 114.91 174.82 79.29 194.56 43.67 174.82 40.7 169.06 79.29 147.92 117.88 169.06"/>
      </g>
      <g>
        <path class="cls-1" d="M277.04,35.99l-29.15,69.32-29.14-69.32h-23.7v96.7h21.52v-55.43h.68l22.74,55.43h15.8l22.74-55.43h.68v55.43h21.52V35.99h-23.7Z"/>
        <path class="cls-1" d="M313.54,61.87v70.83h21.11V61.87h-21.11ZM313.54,35.99v18.39h21.11v-18.39h-21.11Z"/>
        <path class="cls-1" d="M381.77,114.98c-9.12,0-16.89-6.81-16.89-17.84s7.76-17.57,16.89-17.57c6.81,0,11.85,3.68,15.26,8.31l15.25-9.95c-6.95-11.72-17.98-17.43-30.51-17.43-18.93,0-37.73,12.66-37.73,36.63s18.79,36.91,37.73,36.91c12.53,0,23.56-5.99,30.51-17.43l-15.25-9.95c-3.41,4.63-8.45,8.31-15.26,8.31Z"/>
        <path class="cls-1" d="M471.53,61.87v8.04h-.4c-1.09-2.59-8.45-9.4-20.98-9.4-16.06,0-33.77,12.12-33.77,36.77s17.71,36.78,33.77,36.78c12.53,0,19.89-6.81,20.98-9.4h.4v8.04h21.12V61.87h-21.12ZM454.51,115.26c-8.99,0-17.3-6.55-17.3-17.99s8.31-17.98,17.3-17.98,17.57,6.4,17.57,17.98-8.31,17.99-17.57,17.99Z"/>
        <path class="cls-1" d="M542.08,114.85c-6.39,0-8.44-3.82-8.44-7.36v-28.87h14.85v-16.75h-14.85v-18.11h-21.11v18.11h-10.49v16.75h10.49v32.28c0,16.21,9.53,22.61,22.61,22.61,4.9,0,10.89-.96,13.61-3.68v-16.07c-2.58.81-5.04,1.09-6.67,1.09Z"/>
        <path class="cls-1" d="M609.63,61.87v8.04h-.4c-1.09-2.59-8.44-9.4-20.97-9.4-16.07,0-33.78,12.12-33.78,36.77s17.71,36.78,33.78,36.78c12.53,0,19.88-6.81,20.97-9.4h.4v8.04h21.12V61.87h-21.12ZM592.61,115.26c-8.99,0-17.3-6.55-17.3-17.99s8.31-17.98,17.3-17.98,17.57,6.4,17.57,17.98-8.31,17.99-17.57,17.99Z"/>
        <path class="cls-1" d="M664.31,41.64l-10.21-5.65-10.22,5.65-.34.19v88.6l.34.19,10.21,5.65,10.22-5.65.34-.19V41.83l-.34-.19Z"/>
        <path class="cls-1" d="M730.17,61.87l-17.98,46.03-17.98-46.03h-21.52l11.59,27.59,7.83,18.64,9.99,23.77-11.72,26.7h20.71l10.89-25.88,29.69-70.83h-21.52Z"/>
        <path class="cls-1" d="M789,91.01l-8.85-3.27c-4.77-1.49-6.13-3.68-6.13-5.99,0-2.45,2.04-4.9,6.13-4.9,2.86,0,6.4,1.23,8.17,6.67l16.48-4.09c-2.46-11.44-12.13-18.93-25.47-18.93s-25.74,7.76-25.74,20.97c0,8.85,5.04,16.48,16.75,20.71l9.53,3.53c4.62,1.5,5.99,3.69,5.99,6,0,3.94-3.54,5.85-7.36,5.85-6.67,0-9.12-4.77-10.21-8.17l-16.75,4.49c2.18,13.49,12.94,20.16,27.24,20.16,15.8,0,27.92-8.04,27.92-22.33,0-12.81-10.08-18.12-17.71-20.71Z"/>
        <path class="cls-1" d="M851.38,114.85c-6.39,0-8.44-3.82-8.44-7.36v-28.87h14.85v-16.75h-14.85v-18.11h-21.11v18.11h-10.49v16.75h10.49v32.28c0,16.21,9.53,22.61,22.61,22.61,4.9,0,10.89-.96,13.61-3.68v-16.07c-2.58.81-5.04,1.09-6.67,1.09Z"/>
      </g>
    </g>
  </g>
</svg>