<?xml version="1.0" encoding="UTF-8"?>
<svg id="Layer_2" xmlns="http://www.w3.org/2000/svg" viewBox="0 0 357.15 438.21">
  <defs>
    <style>
      .cls-1 {
        fill: #fff;
      }
    </style>
  </defs>
  <g id="Layer_1-2" data-name="Layer_1">
    <g>
      <polygon class="cls-1" points="357.15 121.3 312.78 249.92 275.07 355.12 191.71 306.52 191.71 280.63 245.88 235.45 245.88 213.58 178.58 228.09 111.25 213.58 111.25 235.45 165.46 280.63 165.46 306.52 82.08 355.12 44.37 249.92 0 121.3 23.88 83.88 137.53 147.57 121.34 61.74 49.8 43.23 77.39 0 279.76 0 307.35 43.23 235.8 61.74 219.63 147.57 333.28 83.88 357.15 121.3"/>
      <polygon class="cls-1" points="265.49 380.78 258.8 393.75 178.58 438.21 98.36 393.75 91.68 380.78 178.58 333.15 265.49 380.78"/>
    </g>
  </g>
</svg>